<svg width="24" height="22" viewBox="0 0 24 22" fill="none" xmlns="http://www.w3.org/2000/svg">
<path fill-rule="evenodd" clip-rule="evenodd" d="M14.4619 1.49324C15.2507 1.1664 16.0961 0.998169 16.95 0.998169C17.8038 0.998169 18.6493 1.1664 19.4381 1.49324C20.2268 1.82003 20.9434 2.29897 21.5469 2.90272C22.1507 3.50627 22.63 4.22318 22.9567 5.01185C23.2836 5.80066 23.4518 6.64614 23.4518 7.49999C23.4518 8.35384 23.2836 9.19933 22.9567 9.98814C22.6299 10.7769 22.1509 11.4935 21.5471 12.0971L12.7071 20.9371C12.3166 21.3276 11.6834 21.3276 11.2929 20.9371L2.45289 12.0971C1.23366 10.8779 0.548706 9.22424 0.548706 7.49999C0.548706 5.77574 1.23366 4.12212 2.45289 2.90289C3.67212 1.68366 5.32575 0.998704 7.05 0.998704C8.77425 0.998704 10.4279 1.68366 11.6471 2.90289L12 3.25578L12.3527 2.90305C12.9563 2.29923 13.6731 1.82006 14.4619 1.49324ZM16.95 2.99817C16.3589 2.99817 15.7735 3.11463 15.2274 3.34091C14.6813 3.56719 14.1852 3.89885 13.7673 4.31694L12.7071 5.3771C12.3166 5.76763 11.6834 5.76763 11.2929 5.3771L10.2329 4.3171C9.38873 3.47295 8.24381 2.9987 7.05 2.9987C5.85618 2.9987 4.71126 3.47295 3.8671 4.3171C3.02295 5.16126 2.54871 6.30618 2.54871 7.49999C2.54871 8.69381 3.02295 9.83873 3.8671 10.6829L12 18.8158L20.1329 10.6829C20.551 10.265 20.8828 9.76866 21.1091 9.22256C21.3354 8.67645 21.4518 8.09112 21.4518 7.49999C21.4518 6.90887 21.3354 6.32353 21.1091 5.77743C20.8828 5.23133 20.5511 4.73516 20.1331 4.31727C19.7152 3.89918 19.2187 3.56719 18.6726 3.34091C18.1265 3.11463 17.5411 2.99817 16.95 2.99817Z" fill="#EC5529"/>
</svg>
